PathFileType	4	(X/Y/Z)	C:/Users/dbak576/Desktop/Duncan Bakke Modelling Files/H30s1/Static_H30s1.trc	
DataRate	CameraRate	NumFrames	NumMarkers	Units	OrigDataRate	OrigDataStartFrame	OrigNumFrames	
200.00	200.00	4	63	mm	200.00	1279	360	
Frame#	Time	LFHD			RFHD			LBHD			RBHD			C7			T10			CLAV			RBack			LASI			RASI			LPSI			RPSI			RACR1			RUA1			RElbow			RElbowM			RFA1			RWRR			RWRU			RCAR			LACR1			LUA1			LElbow			LElbowM			LFA1			LWRR			LWRU			LCAR			RTH1			RTH3			RTH2			RTH4			RLFC			RMFC			RTB1			RTB3			RTB2			RTB4			RLMAL			RMMAL			RMT1			RMT5			RToe			LTH1			LTH3			LTH2			LTH4			LLFC			LMFC			LTB1			LTB3			LTB2			LTB4			LLMAL			LMMAL			LCAL			LMT1			LMT5			LToe			RCAL			STRN			*61			*62			
		X1	Y1	Z1	X2	Y2	Z2	X3	Y3	Z3	X4	Y4	Z4	X5	Y5	Z5	X6	Y6	Z6	X7	Y7	Z7	X8	Y8	Z8	X9	Y9	Z9	X10	Y10	Z10	X11	Y11	Z11	X12	Y12	Z12	X13	Y13	Z13	X14	Y14	Z14	X15	Y15	Z15	X16	Y16	Z16	X17	Y17	Z17	X18	Y18	Z18	X19	Y19	Z19	X20	Y20	Z20	X21	Y21	Z21	X22	Y22	Z22	X23	Y23	Z23	X24	Y24	Z24	X25	Y25	Z25	X26	Y26	Z26	X27	Y27	Z27	X28	Y28	Z28	X29	Y29	Z29	X30	Y30	Z30	X31	Y31	Z31	X32	Y32	Z32	X33	Y33	Z33	X34	Y34	Z34	X35	Y35	Z35	X36	Y36	Z36	X37	Y37	Z37	X38	Y38	Z38	X39	Y39	Z39	X40	Y40	Z40	X41	Y41	Z41	X42	Y42	Z42	X43	Y43	Z43	X44	Y44	Z44	X45	Y45	Z45	X46	Y46	Z46	X47	Y47	Z47	X48	Y48	Z48	X49	Y49	Z49	X50	Y50	Z50	X51	Y51	Z51	X52	Y52	Z52	X53	Y53	Z53	X54	Y54	Z54	X55	Y55	Z55	X56	Y56	Z56	X57	Y57	Z57	X58	Y58	Z58	X59	Y59	Z59	X60	Y60	Z60	X61	Y61	Z61	X62	Y62	Z62	X63	Y63	Z63	

1	0.000	-44.91971	-342.25653	1588.23462	54.77831	-335.16821	1592.88513	-57.83426	-496.02002	1553.72949	86.81982	-484.41699	1565.41199	13.79593	-519.09552	1425.39783	18.33790	-548.19147	1197.23767	16.19991	-393.93582	1343.32275	85.19373	-572.33173	1281.43665	-96.78131	-344.27460	920.26617	155.54875	-352.19568	939.31439	-25.61820	-525.51410	965.06195	74.15348	-525.68707	964.86835	160.13481	-493.34714	1385.14832	297.80618	-478.19162	1329.18542	451.57529	-430.84576	1305.09583	421.23807	-374.39050	1274.93005	578.12714	-406.82147	1343.24805	673.44794	-350.37991	1402.53186	690.14856	-340.23563	1336.46863	753.21893	-331.30093	1387.93884	-119.21932	-485.27377	1394.31116	-261.97617	-491.49057	1332.12598	-407.34409	-454.41458	1294.22925	-393.27863	-401.75214	1258.76379	-538.52148	-408.69199	1334.77136	-624.26941	-348.33078	1396.28479	-635.87848	-321.86676	1335.29004	-701.50922	-328.22662	1386.24512	241.75058	-411.80310	776.02679	224.15685	-422.96738	604.92615	211.31654	-363.00989	690.26715	232.42607	-418.08844	687.96948	213.08591	-432.55008	457.17856	89.84071	-468.70798	435.27634	196.96718	-415.70938	348.49854	202.09505	-431.23471	176.23851	241.10454	-469.11346	267.91806	200.83458	-422.84036	261.86996	225.69588	-487.16412	68.76427	145.21254	-470.78372	80.32352	156.58139	-347.70184	34.49508	245.05376	-380.01944	24.58643	184.70695	-289.84683	26.01890	-175.27559	-409.38580	761.24945	-162.05266	-431.31583	591.05701	-149.28386	-365.45496	669.94080	-171.18315	-420.89001	675.41669	-156.86865	-452.60306	452.04987	-26.79552	-473.24643	428.59918	-107.28157	-414.95917	346.91510	-118.28181	-430.10373	177.16899	-171.84949	-443.64984	267.09518	-113.34675	-426.07443	261.34241	-171.17937	-485.07224	69.49102	-91.15782	-468.39221	79.23914	-130.78561	-535.88947	33.32485	-111.00954	-342.61722	29.88656	-193.14755	-376.25595	24.86049	-139.97745	-283.61954	25.18091	186.85260	-535.17749	38.61145	17.88702	-342.90356	1221.89319						 
2	0.005	-44.84855	-342.19904	1588.22571	54.81581	-335.11194	1592.86108	-57.72129	-495.94919	1553.71631	86.84418	-484.38644	1565.41089	13.81341	-519.09808	1425.42444	18.31159	-548.21521	1197.23962	16.21536	-393.91302	1343.31714	85.20815	-572.35968	1281.42163	-96.81755	-344.28540	920.28143	155.51431	-352.22247	939.30005	-25.62327	-525.54413	965.08954	74.16012	-525.71454	964.86823	160.13870	-493.34479	1385.14136	297.75143	-478.21960	1329.21118	451.57828	-430.84894	1305.09399	421.25113	-374.39819	1274.89795	578.11578	-406.82251	1343.22461	673.47095	-350.34915	1402.51672	690.20111	-340.20862	1336.44775	753.23151	-331.24826	1387.89868	-119.20705	-485.27753	1394.32617	-261.99780	-491.53906	1332.14453	-407.34320	-454.43600	1294.27893	-393.22913	-401.81088	1258.81299	-538.51666	-408.69870	1334.82190	-624.24597	-348.34244	1396.34937	-635.77673	-321.73935	1335.38025	-701.47937	-328.21851	1386.30664	241.78632	-411.81216	776.03497	224.14113	-422.96863	604.91785	211.33319	-363.03082	690.27173	232.39098	-418.05811	687.94391	213.08620	-432.53864	457.16171	89.84304	-468.68884	435.26129	196.96260	-415.70557	348.50357	202.08972	-431.22772	176.21492	241.29279	-468.96292	267.92346	200.83356	-422.84229	261.88806	225.72417	-487.13327	68.76412	145.21793	-470.79321	80.34270	156.59554	-347.69977	34.50917	245.07431	-380.00952	24.56489	184.68120	-289.84006	26.06761	-175.25586	-409.41254	761.23749	-162.05070	-431.34772	591.02673	-149.31560	-365.45865	669.95221	-171.18999	-420.93240	675.41174	-156.87791	-452.64145	452.04999	-26.80700	-473.23511	428.63293	-107.26721	-415.00214	346.94583	-118.29910	-430.08554	177.19597	-171.82333	-443.65079	267.06955	-113.36095	-426.05463	261.34439	-171.17340	-485.15485	69.56801	-91.13991	-468.40213	79.23884	-130.73291	-535.91388	33.37395	-110.98858	-342.61676	29.89493	-193.14552	-376.28705	24.87391	-139.98682	-283.67230	25.19907	186.66193	-535.46313	38.80149	17.85499	-342.84805	1221.94543						 
3	0.010	-44.77222	-342.16885	1588.22546	54.87463	-335.04071	1592.82166	-57.69886	-495.92615	1553.73120	86.83065	-484.37375	1565.42004	13.81416	-519.09717	1425.42615	18.38383	-548.27045	1197.26318	16.22312	-393.90561	1343.33862	85.27051	-572.36639	1281.45715	-96.81916	-344.28433	920.28198	155.50856	-352.22421	939.27606	-25.60069	-525.56537	965.07605	74.15984	-525.71582	964.86938	160.18321	-493.31796	1385.17444	297.77036	-478.15887	1329.13013	451.62506	-430.98099	1304.93201	421.26117	-374.40292	1274.88306	578.09705	-406.78452	1343.18298	673.46283	-350.30362	1402.48486	690.19043	-340.15790	1336.42053	753.23926	-331.22144	1387.90125	-119.17708	-485.26279	1394.35400	-261.90945	-491.48581	1332.13367	-407.26389	-454.44525	1294.31909	-393.22510	-401.82883	1258.80664	-538.47620	-408.67886	1334.86572	-624.29028	-348.33078	1396.42273	-635.81958	-321.80865	1335.44226	-701.46704	-328.22330	1386.37598	241.76431	-411.81802	776.01160	224.14426	-422.97153	604.94312	211.27943	-363.03024	690.27826	232.35098	-418.08981	687.97150	213.08012	-432.53925	457.15024	89.80084	-468.67731	435.23605	196.94632	-415.72604	348.50275	202.07788	-431.22528	176.23788	241.30370	-468.91919	267.92087	200.83717	-422.84933	261.87119	225.67813	-487.20685	68.79082	145.21494	-470.79782	80.33879	156.59456	-347.67398	34.51297	245.05663	-380.02216	24.58545	184.70561	-289.85086	26.01714	-175.31674	-409.41019	761.22418	-162.08446	-431.36703	591.06360	-149.33365	-365.45813	669.98053	-171.22513	-420.97980	675.42328	-156.88359	-452.64713	452.06750	-26.81703	-473.25504	428.62476	-107.25215	-414.96298	346.95212	-118.28898	-430.06412	177.22398	-171.84833	-443.64853	267.09488	-113.35712	-426.05872	261.34595	-171.17007	-485.14984	69.62029	-91.13434	-468.35675	79.25321	-130.80664	-536.06989	33.34542	-111.01056	-342.61386	29.91444	-193.16223	-376.27481	24.89056	-139.97391	-283.67175	25.19798	186.64784	-535.51727	38.84387	17.85036	-342.83795	1221.95337						 
4	0.015	-44.73726	-342.09631	1588.21252	54.96275	-334.95587	1592.77820	-57.35183	-495.80161	1553.63794	86.87297	-484.28101	1565.43628	13.83132	-519.08746	1425.42407	18.37288	-548.28613	1197.31372	16.23853	-393.90427	1343.35815	85.27662	-572.36475	1281.45935	-96.81996	-344.32004	920.28204	155.50323	-352.24994	939.26849	-25.59826	-525.56543	965.07458	74.13229	-525.73700	964.87390	160.20436	-493.32043	1385.16113	297.79016	-478.18127	1329.10498	451.66150	-430.84091	1305.01428	421.25784	-374.39676	1274.80042	578.14282	-406.75412	1343.16138	673.50836	-350.23669	1402.42749	690.20569	-340.14053	1336.36951	753.27826	-331.18008	1387.82715	-119.15722	-485.28540	1394.35132	-261.96945	-491.53235	1332.23413	-407.24277	-454.43439	1294.30359	-393.23068	-401.81931	1258.86243	-538.43994	-408.64081	1334.92603	-624.26154	-348.32382	1396.47290	-635.77893	-321.79993	1335.46033	-701.38995	-328.14487	1386.42236	241.73772	-411.90286	776.03546	224.11346	-422.62994	605.16168	211.27628	-362.99152	690.29364	232.33875	-418.05313	687.92645	213.05975	-432.54343	457.17319	89.80145	-468.67484	435.26563	196.94144	-415.71213	348.49500	202.09735	-431.24252	176.23552	241.25940	-468.94043	267.94073	200.83296	-422.83899	261.88861	225.65720	-487.15857	68.61387	145.22397	-470.79156	80.32162	156.61351	-347.68860	34.50998	245.08659	-380.05334	24.58836	184.75220	-289.81104	26.07301	-175.30704	-409.46033	761.22107	-162.08723	-431.36749	591.06653	-149.32114	-365.45767	669.95636	-171.22845	-420.98239	675.42200	-156.89072	-452.63864	452.06531	-27.20704	-473.64606	428.74796	-107.27176	-414.94244	346.95969	-118.21317	-430.15710	177.16017	-171.84531	-443.64444	267.08194	-113.34708	-426.06110	261.35629	-171.18506	-485.11322	69.50362	-91.14360	-468.39392	79.24899	-130.76538	-535.88263	33.33469	-111.01819	-342.64072	29.92218	-193.17709	-376.26126	24.90312	-139.96262	-283.66452	25.20085	186.64886	-535.50720	38.85859	17.95207	-343.00275	1221.94934						 
